<svg width="20" height="20" viewBox="0 0 20 20" fill="none" xmlns="http://www.w3.org/2000/svg">
<g clip-path="url(#clip0_24_127)">
<path fill-rule="evenodd" clip-rule="evenodd" d="M6.22081 0.888252C7.19831 0.843252 7.50998 0.833252 9.99998 0.833252C12.49 0.833252 12.8016 0.844085 13.7783 0.888252C14.755 0.932419 15.4216 1.08825 16.005 1.31409C16.6158 1.54492 17.17 1.90575 17.6283 2.37242C18.095 2.82992 18.455 3.38325 18.685 3.99492C18.9116 4.57825 19.0666 5.24492 19.1116 6.21992C19.1566 7.19909 19.1666 7.51075 19.1666 9.99992C19.1666 12.4899 19.1558 12.8016 19.1116 13.7791C19.0675 14.7541 18.9116 15.4208 18.685 16.0041C18.455 16.6158 18.0944 17.1701 17.6283 17.6283C17.17 18.0949 16.6158 18.4549 16.005 18.6849C15.4216 18.9116 14.755 19.0666 13.78 19.1116C12.8016 19.1566 12.49 19.1666 9.99998 19.1666C7.50998 19.1666 7.19831 19.1558 6.22081 19.1116C5.24581 19.0674 4.57915 18.9116 3.99581 18.6849C3.38408 18.4549 2.82983 18.0943 2.37165 17.6283C1.9053 17.1705 1.54441 16.6165 1.31415 16.0049C1.08831 15.4216 0.933313 14.7549 0.888313 13.7799C0.843313 12.8008 0.833313 12.4891 0.833313 9.99992C0.833313 7.50992 0.844146 7.19825 0.888313 6.22159C0.93248 5.24492 1.08831 4.57825 1.31415 3.99492C1.54475 3.38332 1.90591 2.82935 2.37248 2.37159C2.83001 1.90534 3.38371 1.54445 3.99498 1.31409C4.57831 1.08825 5.24498 0.933252 6.21998 0.888252H6.22081ZM13.7041 2.53825C12.7375 2.49409 12.4475 2.48492 9.99998 2.48492C7.55248 2.48492 7.26248 2.49409 6.29581 2.53825C5.40165 2.57909 4.91665 2.72825 4.59331 2.85409C4.16581 3.02075 3.85998 3.21825 3.53915 3.53909C3.23502 3.83496 3.00096 4.19515 2.85415 4.59325C2.72831 4.91659 2.57915 5.40159 2.53831 6.29575C2.49415 7.26242 2.48498 7.55242 2.48498 9.99992C2.48498 12.4474 2.49415 12.7374 2.53831 13.7041C2.57915 14.5983 2.72831 15.0833 2.85415 15.4066C3.00081 15.8041 3.23498 16.1649 3.53915 16.4608C3.83498 16.7649 4.19581 16.9991 4.59331 17.1458C4.91665 17.2716 5.40165 17.4208 6.29581 17.4616C7.26248 17.5058 7.55165 17.5149 9.99998 17.5149C12.4483 17.5149 12.7375 17.5058 13.7041 17.4616C14.5983 17.4208 15.0833 17.2716 15.4066 17.1458C15.8341 16.9791 16.14 16.7816 16.4608 16.4608C16.765 16.1649 16.9991 15.8041 17.1458 15.4066C17.2716 15.0833 17.4208 14.5983 17.4616 13.7041C17.5058 12.7374 17.515 12.4474 17.515 9.99992C17.515 7.55242 17.5058 7.26242 17.4616 6.29575C17.4208 5.40159 17.2716 4.91659 17.1458 4.59325C16.9791 4.16575 16.7816 3.85992 16.4608 3.53909C16.1649 3.23498 15.8047 3.00093 15.4066 2.85409C15.0833 2.72825 14.5983 2.57909 13.7041 2.53825V2.53825ZM8.82915 12.8258C9.48303 13.0979 10.2111 13.1347 10.8891 12.9297C11.567 12.7247 12.1528 12.2907 12.5463 11.7018C12.9398 11.1129 13.1167 10.4056 13.0467 9.70084C12.9767 8.99603 12.6642 8.3374 12.1625 7.83742C11.8427 7.51782 11.456 7.2731 11.0303 7.12087C10.6045 6.96865 10.1503 6.91272 9.70039 6.9571C9.25045 7.00148 8.81594 7.14507 8.42815 7.37753C8.04036 7.60999 7.70893 7.92554 7.45773 8.30146C7.20653 8.67738 7.0418 9.10433 6.97541 9.55155C6.90902 9.99878 6.94261 10.4552 7.07376 10.8878C7.20492 11.3205 7.43038 11.7188 7.73391 12.0539C8.03745 12.3889 8.4115 12.6526 8.82915 12.8258ZM6.66831 6.66825C7.10583 6.23073 7.62525 5.88367 8.19689 5.64689C8.76854 5.4101 9.38123 5.28823 9.99998 5.28823C10.6187 5.28823 11.2314 5.4101 11.8031 5.64689C12.3747 5.88367 12.8941 6.23073 13.3316 6.66825C13.7692 7.10577 14.1162 7.62519 14.353 8.19683C14.5898 8.76848 14.7117 9.38117 14.7117 9.99992C14.7117 10.6187 14.5898 11.2314 14.353 11.803C14.1162 12.3747 13.7692 12.8941 13.3316 13.3316C12.448 14.2152 11.2496 14.7116 9.99998 14.7116C8.75036 14.7116 7.55193 14.2152 6.66831 13.3316C5.7847 12.448 5.28829 11.2495 5.28829 9.99992C5.28829 8.7503 5.7847 7.55187 6.66831 6.66825V6.66825ZM15.7566 5.98992C15.8651 5.88764 15.9519 5.76465 16.0119 5.62823C16.0719 5.49181 16.104 5.34473 16.1062 5.19569C16.1083 5.04666 16.0806 4.89871 16.0245 4.76059C15.9685 4.62248 15.8853 4.49701 15.7799 4.39162C15.6746 4.28623 15.5491 4.20305 15.411 4.14702C15.2729 4.09098 15.1249 4.06323 14.9759 4.0654C14.8268 4.06758 14.6798 4.09963 14.5433 4.15967C14.4069 4.2197 14.2839 4.3065 14.1816 4.41492C13.9827 4.62578 13.8738 4.90585 13.8781 5.19569C13.8823 5.48553 13.9993 5.76232 14.2043 5.96729C14.4092 6.17226 14.686 6.28928 14.9759 6.2935C15.2657 6.29773 15.5458 6.18883 15.7566 5.98992V5.98992Z" fill="#6E6666"/>
</g>
<defs>
<clipPath id="clip0_24_127">
<rect width="20" height="20" fill="white"/>
</clipPath>
</defs>
</svg>
