<svg width="20" height="20" viewBox="0 0 20 20" fill="none" xmlns="http://www.w3.org/2000/svg">
<g clip-path="url(#clip0_24_120)">
<mask id="mask0_24_120" style="mask-type:alpha" maskUnits="userSpaceOnUse" x="0" y="0" width="20" height="20">
<path d="M0 0H20V20H0V0Z" fill="white"/>
</mask>
<g mask="url(#mask0_24_120)">
<path d="M15.7459 18.7642C15.0809 19.4867 13.5409 19.9776 12.1617 20.0001H12.01C7.37919 20.0001 6.37169 16.5301 6.37169 14.5051V8.88174H4.54835C4.49802 8.88163 4.44821 8.87148 4.40185 8.85187C4.35548 8.83227 4.3135 8.80361 4.27835 8.76758C4.20665 8.69401 4.16657 8.59531 4.16669 8.49258V5.83591C4.16671 5.69966 4.20796 5.56661 4.28502 5.45424C4.36189 5.34316 4.47139 5.25871 4.59835 5.21258C6.97752 4.35758 7.72169 2.24424 7.82335 0.637577C7.85252 0.207577 8.07085 7.66895e-05 8.43835 7.66895e-05H11.1667C11.2177 -0.000954068 11.2684 0.00841517 11.3157 0.0276133C11.363 0.0468115 11.4058 0.0754364 11.4417 0.111743C11.4781 0.148169 11.5069 0.191445 11.5265 0.239074C11.5461 0.286703 11.5561 0.337742 11.5559 0.389243V4.89174H14.7417C14.8425 4.89174 14.94 4.93341 15.0117 5.00591C15.0834 5.07948 15.1235 5.17818 15.1234 5.28091V8.47258C15.1235 8.57531 15.0834 8.67401 15.0117 8.74758C14.9766 8.78376 14.9347 8.81257 14.8883 8.83232C14.8419 8.85207 14.7921 8.86236 14.7417 8.86258H11.5417V14.0667C11.5417 15.3734 12.3875 15.7342 12.9084 15.7342C13.3338 15.7155 13.753 15.6251 14.1484 15.4667C14.3001 15.3854 14.4737 15.3545 14.6442 15.3784C14.7152 15.3989 14.7791 15.4384 14.8291 15.4928C14.8791 15.5472 14.9131 15.6143 14.9275 15.6867L15.7709 18.1984C15.8275 18.3959 15.8875 18.6134 15.7459 18.7651V18.7642Z" fill="#6E6666"/>
</g>
</g>
<defs>
<clipPath id="clip0_24_120">
<rect width="20" height="20" fill="white"/>
</clipPath>
</defs>
</svg>
