<svg width="20" height="20" viewBox="0 0 20 20" fill="none" xmlns="http://www.w3.org/2000/svg">
<g clip-path="url(#clip0_24_109)">
<mask id="mask0_24_109" style="mask-type:alpha" maskUnits="userSpaceOnUse" x="0" y="0" width="20" height="20">
<path d="M0 0H20V20H0V0Z" fill="white"/>
</mask>
<g mask="url(#mask0_24_109)">
<mask id="mask1_24_109" style="mask-type:alpha" maskUnits="userSpaceOnUse" x="0" y="0" width="20" height="20">
<path d="M0 0H20V20H0V0Z" fill="white"/>
</mask>
<g mask="url(#mask1_24_109)">
<path d="M0 10C0 14.2692 2.67583 17.9142 6.44167 19.3483C6.35 18.5675 6.2525 17.28 6.4625 16.3767C6.64333 15.6 7.63 11.4283 7.63 11.4283C7.63 11.4283 7.3325 10.8325 7.3325 9.95C7.3325 8.56667 8.13417 7.53333 9.13333 7.53333C9.98333 7.53333 10.3933 8.17083 10.3933 8.935C10.3933 9.78917 9.84917 11.0658 9.56833 12.25C9.33417 13.2408 10.0658 14.0492 11.0425 14.0492C12.8117 14.0492 14.1725 12.1833 14.1725 9.49C14.1725 7.10583 12.4592 5.44 10.0133 5.44C7.18167 5.44 5.51917 7.56417 5.51917 9.76C5.51917 10.6158 5.84833 11.5325 6.26 12.0317C6.2951 12.0694 6.3199 12.1155 6.33201 12.1655C6.34412 12.2156 6.34314 12.2679 6.32917 12.3175C6.25333 12.6325 6.085 13.3083 6.0525 13.4467C6.00833 13.6283 5.90833 13.6675 5.71917 13.5792C4.47583 13.0008 3.69917 11.1833 3.69917 9.72333C3.69917 6.5825 5.98 3.69917 10.2758 3.69917C13.7292 3.69917 16.4133 6.16 16.4133 9.44833C16.4133 12.8792 14.2508 15.6408 11.2475 15.6408C10.2383 15.6408 9.29083 15.1158 8.96583 14.4967C8.96583 14.4967 8.46667 16.3983 8.34583 16.8633C8.11083 17.7667 7.45917 18.91 7.055 19.5592C7.98667 19.8458 8.975 20 10 20C15.5225 20 20 15.5225 20 10C20 4.4775 15.5225 0 10 0C4.4775 0 0 4.4775 0 10Z" fill="#6E6666"/>
</g>
</g>
</g>
<defs>
<clipPath id="clip0_24_109">
<rect width="20" height="20" fill="white"/>
</clipPath>
</defs>
</svg>
