<svg width="102" height="39" viewBox="0 0 102 39" fill="none" xmlns="http://www.w3.org/2000/svg">
<path d="M16.2197 38.8524C18.7236 38.8524 20.9079 38.4795 22.879 37.7869C24.7969 37.0943 26.6615 36.0289 28.526 34.4839L24.7436 28.5705C23.4117 29.6892 22.1332 30.4884 20.8546 30.9678C19.576 31.4473 18.1909 31.7137 16.7525 31.7137C14.0355 31.7137 11.9578 30.7015 10.4661 28.677C8.97446 26.6526 8.22862 23.7225 8.22862 19.9401C8.22862 16.1576 8.97446 13.2276 10.4661 11.1499C11.9578 9.07218 14.0355 8.00669 16.6992 8.00669C17.7114 8.00669 18.6171 8.11324 19.4162 8.27306C20.162 8.43289 20.9079 8.75253 21.6537 9.232C22.3995 9.71147 23.2519 10.3508 24.2108 11.1499L27.9933 5.28972C26.1287 3.74477 24.3707 2.57274 22.6659 1.88018C20.9611 1.18761 18.8834 0.867969 16.4861 0.867969C13.1298 0.867969 10.253 1.61381 7.8557 3.15875C5.45837 4.7037 3.59378 6.94121 2.3152 9.81801C0.983348 12.6948 0.344059 16.1576 0.344059 20.2065C0.344059 26.1199 1.72919 30.7015 4.55271 33.9512C7.37624 37.2009 11.2652 38.8524 16.2197 38.8524ZM40.5489 38V27.0788C40.5489 24.8946 41.1349 23.1365 42.307 21.8047C43.4257 20.5261 44.9174 19.8868 46.782 19.8868H48.8597V12.9612H47.7942C46.0362 12.9612 44.4912 13.3341 43.0528 14.0799C41.6144 14.8791 40.5489 15.8913 39.8564 17.2231L39.8031 13.2276H33.1971V38H40.5489ZM63.458 38.7991C65.4292 38.7991 67.2405 38.4795 68.8387 37.8402C70.3837 37.2542 71.8753 36.242 73.3137 34.8568L69.6378 30.4351C68.6256 31.4473 67.7199 32.0866 66.9208 32.4062C66.1217 32.7791 65.2161 32.939 64.2039 32.939C62.7122 32.939 61.4336 32.5128 60.4214 31.7137C59.3559 30.9145 58.7166 29.636 58.4503 27.7714H73.953C74.1128 27.2919 74.2194 26.8657 74.2727 26.4395C74.3259 26.0666 74.3259 25.5871 74.3259 25.0011C74.3259 22.6038 73.8997 20.4728 73.0474 18.555C72.195 16.6904 70.9164 15.1987 69.2649 14.0799C67.6134 12.9612 65.5357 12.4284 63.0851 12.4284C59.4092 12.4284 56.5857 13.6537 54.508 16.0511C52.4303 18.4484 51.4181 21.6981 51.4181 25.747C51.4181 29.7425 52.4836 32.8857 54.5613 35.2297C56.6389 37.6271 59.6223 38.7991 63.458 38.7991ZM63.2982 18.2886C64.5235 18.2886 65.5357 18.7148 66.3881 19.5139C67.1872 20.3663 67.7199 21.5383 67.933 23.0833H58.4503C58.7166 21.5383 59.2494 20.3663 60.155 19.5139C61.0074 18.7148 62.0729 18.2886 63.2982 18.2886ZM98.3688 35.3363C100.446 33.0455 101.512 29.7958 101.512 25.5871C101.512 21.4318 100.446 18.182 98.3688 15.8913C96.2911 13.6005 93.3077 12.4284 89.472 12.4284C85.6363 12.4284 82.6529 13.6005 80.5752 15.8913C78.4975 18.182 77.4321 21.4318 77.4321 25.5871C77.4321 29.7958 78.4975 33.0455 80.5752 35.3363C82.6529 37.6271 85.6363 38.7991 89.472 38.7991C93.3077 38.7991 96.2911 37.6271 98.3688 35.3363ZM85.9559 30.8613C85.1568 29.636 84.7306 27.8779 84.7306 25.5871C84.7306 23.4029 85.1568 21.6981 85.9559 20.4196C86.755 19.1943 87.9271 18.555 89.472 18.555C91.017 18.555 92.189 19.1943 92.9881 20.4196C93.7872 21.6981 94.2134 23.4029 94.2134 25.5871C94.2134 27.8779 93.7872 29.636 92.9881 30.8613C92.189 32.0866 91.017 32.6726 89.472 32.6726C87.9271 32.6726 86.755 32.0866 85.9559 30.8613Z" fill="white"/>
</svg>
